<svg width="44" height="44" viewBox="0 0 44 44" fill="none" xmlns="http://www.w3.org/2000/svg">
  <path
    d="M22 3.24867C32.3547 3.24867 40.7513 11.6453 40.7513 22C40.7513 32.3547 32.3547 40.7513 22 40.7513C11.6453 40.7513 3.24867 32.3547 3.24867 22C3.24867 11.6453 11.6453 3.24867 22 3.24867ZM22 4.71533C12.452 4.71533 4.71533 12.452 4.71533 22C4.71533 31.548 12.452 39.2847 22 39.2847C31.548 39.2847 39.2847 31.548 39.2847 22C39.2847 12.452 31.548 4.71533 22 4.71533ZM29.766 18.0693C29.9347 18.1133 30.0887 18.194 30.2207 18.304C30.3527 18.414 30.4553 18.5533 30.5287 18.7073C30.602 18.8613 30.6387 19.03 30.6387 19.2133C30.6387 19.492 30.5287 19.7633 30.3527 19.976C30.1693 20.1887 29.92 20.3353 29.6487 20.3793C27.9987 20.6873 26.3413 20.8927 24.6693 20.9953C24.5667 20.9953 24.464 21.032 24.3687 21.0833C24.2733 21.1347 24.1927 21.2007 24.1193 21.2813C24.0533 21.362 24.002 21.4647 23.9727 21.5673C23.958 21.6187 23.9507 21.67 23.9433 21.7213V21.89L24.0827 23.1733C24.2587 24.75 24.5813 26.3047 25.0507 27.8153L25.234 28.38L25.432 28.9447L26.3413 31.4233C26.3927 31.57 26.4147 31.724 26.4147 31.878C26.4147 32.032 26.3707 32.186 26.3047 32.3253C26.2387 32.4647 26.1507 32.5893 26.0333 32.692C25.916 32.7947 25.784 32.8753 25.652 32.9193C25.52 32.9707 25.388 33 25.234 33C25.0067 33 24.794 32.9267 24.6033 32.802C24.5007 32.7287 24.4053 32.6407 24.3247 32.5307L24.244 32.4133L24.1853 32.3033L23.9507 31.7973C23.32 30.4187 22.748 29.0767 22.22 27.742L21.978 27.1113L21.6627 27.9253C21.494 28.358 21.3107 28.798 21.1347 29.2307L20.8633 29.876L20.438 30.844L20.0053 31.8047L19.8 32.23C19.69 32.5233 19.4773 32.758 19.1987 32.8827C18.92 33.0147 18.5973 33.022 18.3113 32.912C18.0253 32.802 17.7907 32.582 17.666 32.296C17.578 32.098 17.5487 31.8853 17.578 31.6653L17.6 31.526L17.6367 31.4087L18.546 28.93C19.0887 27.4413 19.4847 25.9013 19.734 24.3393L19.822 23.7527L19.8953 23.1587L20.042 21.8827C20.0567 21.7727 20.042 21.6627 20.0127 21.56C19.9833 21.4573 19.932 21.3547 19.866 21.274C19.8 21.1933 19.712 21.12 19.6167 21.0687C19.5213 21.0173 19.4187 20.988 19.316 20.9807C17.6293 20.8707 15.9573 20.6653 14.2927 20.3573C14.1387 20.328 13.9993 20.2693 13.8673 20.1887C13.7427 20.108 13.6327 19.998 13.5447 19.866C13.4567 19.7413 13.398 19.5947 13.3687 19.448C13.3393 19.3013 13.3393 19.14 13.3687 19.0007C13.398 18.8467 13.4493 18.7073 13.53 18.5753C13.6107 18.4433 13.7207 18.3333 13.8453 18.2453C13.97 18.1573 14.1167 18.0987 14.2633 18.062C14.4173 18.0327 14.5713 18.0327 14.718 18.062C19.5213 18.964 24.4493 18.964 29.2527 18.062C29.4213 18.0253 29.5973 18.0327 29.766 18.0767V18.0693ZM24.0607 11.8653C25.1973 13.0167 25.1973 14.8867 24.0607 16.038C22.924 17.1967 21.076 17.1967 19.9393 16.038C18.8027 14.8867 18.8027 13.0167 19.9393 11.8653C21.076 10.7067 22.924 10.7067 24.0607 11.8653Z"
    fill="#004F9F" />
</svg>